<svg xmlns="http://www.w3.org/2000/svg" xmlns:xlink="http://www.w3.org/1999/xlink" width="800" zoomAndPan="magnify" viewBox="0 0 600 225" height="300" preserveAspectRatio="xMidYMid meet" version="1.0"><defs><clipPath id="02d7cb3f22"><path d="M 0 0 L 600 0 L 600 26.523438 L 0 26.523438 Z M 0 0 " clip-rule="nonzero"/></clipPath><clipPath id="e9dc4bffad"><path d="M 0 25.773438 L 600 25.773438 L 600 52.292969 L 0 52.292969 Z M 0 25.773438 " clip-rule="nonzero"/></clipPath><clipPath id="abe4a90a63"><path d="M 0 52.292969 L 600 52.292969 L 600 78.816406 L 0 78.816406 Z M 0 52.292969 " clip-rule="nonzero"/></clipPath><clipPath id="ba9780a80b"><path d="M 0 78.066406 L 600 78.066406 L 600 104.585938 L 0 104.585938 Z M 0 78.066406 " clip-rule="nonzero"/></clipPath><clipPath id="2033f7f7e2"><path d="M 0 104.316406 L 600 104.316406 L 600 130.835938 L 0 130.835938 Z M 0 104.316406 " clip-rule="nonzero"/></clipPath><clipPath id="c7bdd5551d"><path d="M 0 130.085938 L 600 130.085938 L 600 156.609375 L 0 156.609375 Z M 0 130.085938 " clip-rule="nonzero"/></clipPath><clipPath id="c550fa1625"><path d="M 0 156.609375 L 600 156.609375 L 600 183.128906 L 0 183.128906 Z M 0 156.609375 " clip-rule="nonzero"/></clipPath><clipPath id="3ef1b9d25d"><path d="M 0 182.378906 L 600 182.378906 L 600 208.902344 L 0 208.902344 Z M 0 182.378906 " clip-rule="nonzero"/></clipPath><clipPath id="833c49cd93"><path d="M 0 208.902344 L 600 208.902344 L 600 225 L 0 225 Z M 0 208.902344 " clip-rule="nonzero"/></clipPath></defs><rect x="-60" width="720" fill="#ffffff" y="-22.5" height="270" fill-opacity="1"/><rect x="-60" width="720" fill="#000000" y="-22.5" height="270" fill-opacity="1"/><g clip-path="url(#02d7cb3f22)"><path fill="#ff3131" d="M 0 0 L 599.949219 0 L 599.949219 26.523438 L 0 26.523438 Z M 0 0 " fill-opacity="1" fill-rule="nonzero"/></g><g clip-path="url(#e9dc4bffad)"><path fill="#ffffff" d="M 0 25.773438 L 599.949219 25.773438 L 599.949219 52.292969 L 0 52.292969 Z M 0 25.773438 " fill-opacity="1" fill-rule="nonzero"/></g><g clip-path="url(#abe4a90a63)"><path fill="#ff3131" d="M 0 52.292969 L 599.949219 52.292969 L 599.949219 78.816406 L 0 78.816406 Z M 0 52.292969 " fill-opacity="1" fill-rule="nonzero"/></g><g clip-path="url(#ba9780a80b)"><path fill="#ffffff" d="M 0 78.066406 L 599.949219 78.066406 L 599.949219 104.585938 L 0 104.585938 Z M 0 78.066406 " fill-opacity="1" fill-rule="nonzero"/></g><g clip-path="url(#2033f7f7e2)"><path fill="#ff3131" d="M 0 104.316406 L 599.949219 104.316406 L 599.949219 130.835938 L 0 130.835938 Z M 0 104.316406 " fill-opacity="1" fill-rule="nonzero"/></g><g clip-path="url(#c7bdd5551d)"><path fill="#ffffff" d="M 0 130.085938 L 599.949219 130.085938 L 599.949219 156.609375 L 0 156.609375 Z M 0 130.085938 " fill-opacity="1" fill-rule="nonzero"/></g><g clip-path="url(#c550fa1625)"><path fill="#ff3131" d="M 0 156.609375 L 599.949219 156.609375 L 599.949219 183.128906 L 0 183.128906 Z M 0 156.609375 " fill-opacity="1" fill-rule="nonzero"/></g><g clip-path="url(#3ef1b9d25d)"><path fill="#ffffff" d="M 0 182.378906 L 599.949219 182.378906 L 599.949219 208.902344 L 0 208.902344 Z M 0 182.378906 " fill-opacity="1" fill-rule="nonzero"/></g><g clip-path="url(#833c49cd93)"><path fill="#ff3131" d="M 0 208.902344 L 599.949219 208.902344 L 599.949219 235.421875 L 0 235.421875 Z M 0 208.902344 " fill-opacity="1" fill-rule="nonzero"/></g></svg>