<svg xmlns="http://www.w3.org/2000/svg" xmlns:xlink="http://www.w3.org/1999/xlink" width="1025" zoomAndPan="magnify" viewBox="0 0 768.75 243.75" height="325" preserveAspectRatio="xMidYMid meet" version="1.0"><defs><clipPath id="cea3f71026"><path d="M 0.269531 1 L 284 1 L 284 97.398438 L 0.269531 97.398438 Z M 0.269531 1 " clip-rule="nonzero"/></clipPath><clipPath id="e767515edd"><path d="M 278.484375 20 L 562.441406 20 L 562.441406 117.1875 L 278.484375 117.1875 Z M 278.484375 20 " clip-rule="nonzero"/></clipPath><clipPath id="58d822a0e4"><path d="M 437.761719 9 L 721.453125 9 L 721.453125 106.0625 L 437.761719 106.0625 Z M 437.761719 9 " clip-rule="nonzero"/></clipPath><clipPath id="bc1e812aa5"><path d="M 658.476562 9 L 768.230469 9 L 768.230469 106.0625 L 658.476562 106.0625 Z M 658.476562 9 " clip-rule="nonzero"/></clipPath><clipPath id="cdebca15f1"><path d="M 0.269531 134.976562 L 197.71875 134.976562 L 197.71875 232 L 0.269531 232 Z M 0.269531 134.976562 " clip-rule="nonzero"/></clipPath><clipPath id="58d339f738"><path d="M 104.546875 146.101562 L 388.503906 146.101562 L 388.503906 243 L 104.546875 243 Z M 104.546875 146.101562 " clip-rule="nonzero"/></clipPath><clipPath id="ae8602719f"><path d="M 263.824219 134.976562 L 547.515625 134.976562 L 547.515625 232 L 263.824219 232 Z M 263.824219 134.976562 " clip-rule="nonzero"/></clipPath><clipPath id="1b48af9c09"><path d="M 484.542969 134.976562 L 768.230469 134.976562 L 768.230469 232 L 484.542969 232 Z M 484.542969 134.976562 " clip-rule="nonzero"/></clipPath><clipPath id="12bcd66ade"><path d="M 0.269531 78.4375 L 219.949219 78.4375 L 219.949219 175 L 0.269531 175 Z M 0.269531 78.4375 " clip-rule="nonzero"/></clipPath><clipPath id="53abfe32da"><path d="M 142.113281 73.050781 L 426 73.050781 L 426 170 L 142.113281 170 Z M 142.113281 73.050781 " clip-rule="nonzero"/></clipPath><clipPath id="73b07a8628"><path d="M 336.90625 68.488281 L 620.863281 68.488281 L 620.863281 165 L 336.90625 165 Z M 336.90625 68.488281 " clip-rule="nonzero"/></clipPath><clipPath id="b5b4c185ab"><path d="M 506.25 73.050781 L 768.230469 73.050781 L 768.230469 170 L 506.25 170 Z M 506.25 73.050781 " clip-rule="nonzero"/></clipPath></defs><g clip-path="url(#cea3f71026)"><path fill="#cfcfcf" d="M 0.269531 18.914062 L 9.726562 20.742188 C 19.179688 22.601562 38.09375 26.257812 57.007812 23.863281 C 75.917969 21.433594 94.832031 12.921875 113.746094 7.566406 C 132.65625 2.207031 151.570312 0 170.484375 1.574219 C 189.394531 3.152344 208.308594 8.511719 227.21875 15.761719 C 246.132812 23.011719 265.046875 32.152344 274.503906 36.722656 L 283.957031 41.292969 L 283.957031 97.398438 L 274.503906 97.398438 C 265.046875 97.398438 246.132812 97.398438 227.21875 97.398438 C 208.308594 97.398438 189.394531 97.398438 170.484375 97.398438 C 151.570312 97.398438 132.65625 97.398438 113.746094 97.398438 C 94.832031 97.398438 75.917969 97.398438 57.007812 97.398438 C 38.09375 97.398438 19.179688 97.398438 9.726562 97.398438 L 0.269531 97.398438 Z M 0.269531 18.914062 " fill-opacity="1" fill-rule="nonzero"/></g><g clip-path="url(#e767515edd)"><path fill="#cfcfcf" d="M 278.484375 38.699219 L 287.941406 40.527344 C 297.394531 42.386719 316.308594 46.042969 335.222656 43.648438 C 354.132812 41.222656 373.046875 32.710938 391.960938 27.351562 C 410.871094 21.992188 429.785156 19.789062 448.699219 21.363281 C 467.609375 22.941406 486.523438 28.296875 505.433594 35.546875 C 524.347656 42.796875 543.261719 51.9375 552.71875 56.507812 L 562.171875 61.078125 L 562.171875 117.1875 L 552.71875 117.1875 C 543.261719 117.1875 524.347656 117.1875 505.433594 117.1875 C 486.523438 117.1875 467.609375 117.1875 448.699219 117.1875 C 429.785156 117.1875 410.871094 117.1875 391.960938 117.1875 C 373.046875 117.1875 354.132812 117.1875 335.222656 117.1875 C 316.308594 117.1875 297.394531 117.1875 287.941406 117.1875 L 278.484375 117.1875 Z M 278.484375 38.699219 " fill-opacity="1" fill-rule="nonzero"/></g><g clip-path="url(#58d822a0e4)"><path fill="#cfcfcf" d="M 721.453125 27.578125 L 711.996094 29.40625 C 702.539062 31.265625 683.625 34.921875 664.714844 32.527344 C 645.800781 30.097656 626.890625 21.585938 607.976562 16.230469 C 589.0625 10.871094 570.152344 8.664062 551.238281 10.242188 C 532.324219 11.816406 513.414062 17.175781 494.5 24.425781 C 475.585938 31.675781 456.675781 40.816406 447.21875 45.386719 L 437.761719 49.957031 L 437.761719 106.0625 L 447.21875 106.0625 C 456.675781 106.0625 475.585938 106.0625 494.5 106.0625 C 513.414062 106.0625 532.324219 106.0625 551.238281 106.0625 C 570.152344 106.0625 589.0625 106.0625 607.976562 106.0625 C 626.890625 106.0625 645.800781 106.0625 664.714844 106.0625 C 683.625 106.0625 702.539062 106.0625 711.996094 106.0625 L 721.453125 106.0625 Z M 721.453125 27.578125 " fill-opacity="1" fill-rule="nonzero"/></g><g clip-path="url(#bc1e812aa5)"><path fill="#cfcfcf" d="M 942.167969 27.578125 L 932.710938 29.40625 C 923.253906 31.265625 904.34375 34.921875 885.429688 32.527344 C 866.515625 30.097656 847.605469 21.585938 828.691406 16.230469 C 809.78125 10.871094 790.867188 8.664062 771.953125 10.242188 C 753.042969 11.816406 734.128906 17.175781 715.214844 24.425781 C 696.304688 31.675781 677.390625 40.816406 667.933594 45.386719 L 658.476562 49.957031 L 658.476562 106.0625 L 667.933594 106.0625 C 677.390625 106.0625 696.304688 106.0625 715.214844 106.0625 C 734.128906 106.0625 753.042969 106.0625 771.953125 106.0625 C 790.867188 106.0625 809.78125 106.0625 828.691406 106.0625 C 847.605469 106.0625 866.515625 106.0625 885.429688 106.0625 C 904.34375 106.0625 923.253906 106.0625 932.710938 106.0625 L 942.167969 106.0625 Z M 942.167969 27.578125 " fill-opacity="1" fill-rule="nonzero"/></g><g clip-path="url(#cdebca15f1)"><path fill="#cfcfcf" d="M -86.238281 213.464844 L -76.78125 211.636719 C -67.324219 209.777344 -48.414062 206.121094 -29.5 208.515625 C -10.585938 210.941406 8.324219 219.453125 27.238281 224.8125 C 46.148438 230.171875 65.0625 232.378906 83.976562 230.800781 C 102.886719 229.226562 121.800781 223.867188 140.714844 216.617188 C 159.625 209.367188 178.539062 200.226562 187.996094 195.65625 L 197.453125 191.085938 L 197.453125 134.976562 L 187.996094 134.976562 C 178.539062 134.976562 159.625 134.976562 140.714844 134.976562 C 121.800781 134.976562 102.886719 134.976562 83.976562 134.976562 C 65.0625 134.976562 46.148438 134.976562 27.238281 134.976562 C 8.324219 134.976562 -10.585938 134.976562 -29.5 134.976562 C -48.414062 134.976562 -67.324219 134.976562 -76.78125 134.976562 L -86.238281 134.976562 Z M -86.238281 213.464844 " fill-opacity="1" fill-rule="nonzero"/></g><g clip-path="url(#58d339f738)"><path fill="#cfcfcf" d="M 104.546875 224.585938 L 114.003906 222.757812 C 123.460938 220.898438 142.371094 217.242188 161.285156 219.640625 C 180.199219 222.066406 199.109375 230.578125 218.023438 235.933594 C 236.933594 241.292969 255.847656 243.5 274.761719 241.925781 C 293.671875 240.347656 312.585938 234.988281 331.5 227.738281 C 350.410156 220.488281 369.324219 211.347656 378.78125 206.777344 L 388.234375 202.207031 L 388.234375 146.101562 L 378.78125 146.101562 C 369.324219 146.101562 350.410156 146.101562 331.5 146.101562 C 312.585938 146.101562 293.671875 146.101562 274.761719 146.101562 C 255.847656 146.101562 236.933594 146.101562 218.023438 146.101562 C 199.109375 146.101562 180.199219 146.101562 161.285156 146.101562 C 142.371094 146.101562 123.460938 146.101562 114.003906 146.101562 L 104.546875 146.101562 Z M 104.546875 224.585938 " fill-opacity="1" fill-rule="nonzero"/></g><g clip-path="url(#ae8602719f)"><path fill="#cfcfcf" d="M 547.515625 213.464844 L 538.058594 211.636719 C 528.601562 209.777344 509.691406 206.121094 490.777344 208.515625 C 471.863281 210.941406 452.953125 219.453125 434.039062 224.8125 C 415.125 230.171875 396.214844 232.378906 377.300781 230.800781 C 358.390625 229.226562 339.476562 223.867188 320.5625 216.617188 C 301.652344 209.367188 282.738281 200.226562 273.28125 195.65625 L 263.824219 191.085938 L 263.824219 134.976562 L 273.28125 134.976562 C 282.738281 134.976562 301.652344 134.976562 320.5625 134.976562 C 339.476562 134.976562 358.390625 134.976562 377.300781 134.976562 C 396.214844 134.976562 415.125 134.976562 434.039062 134.976562 C 452.953125 134.976562 471.863281 134.976562 490.777344 134.976562 C 509.691406 134.976562 528.601562 134.976562 538.058594 134.976562 L 547.515625 134.976562 Z M 547.515625 213.464844 " fill-opacity="1" fill-rule="nonzero"/></g><g clip-path="url(#1b48af9c09)"><path fill="#cfcfcf" d="M 768.230469 213.464844 L 758.773438 211.636719 C 749.320312 209.777344 730.40625 206.121094 711.492188 208.515625 C 692.582031 210.941406 673.667969 219.453125 654.753906 224.8125 C 635.84375 230.171875 616.929688 232.378906 598.015625 230.800781 C 579.105469 229.226562 560.191406 223.867188 541.28125 216.617188 C 522.367188 209.367188 503.453125 200.226562 493.996094 195.65625 L 484.542969 191.085938 L 484.542969 134.976562 L 493.996094 134.976562 C 503.453125 134.976562 522.367188 134.976562 541.28125 134.976562 C 560.191406 134.976562 579.105469 134.976562 598.015625 134.976562 C 616.929688 134.976562 635.84375 134.976562 654.753906 134.976562 C 673.667969 134.976562 692.582031 134.976562 711.492188 134.976562 C 730.40625 134.976562 749.320312 134.976562 758.773438 134.976562 L 768.230469 134.976562 Z M 768.230469 213.464844 " fill-opacity="1" fill-rule="nonzero"/></g><g clip-path="url(#12bcd66ade)"><path fill="#cfcfcf" d="M -64.011719 156.925781 L -54.554688 155.097656 C -45.097656 153.238281 -26.1875 149.582031 -7.273438 151.976562 C 11.640625 154.40625 30.550781 162.914062 49.464844 168.273438 C 68.378906 173.632812 87.289062 175.839844 106.203125 174.261719 C 125.117188 172.6875 144.027344 167.328125 162.941406 160.078125 C 181.851562 152.828125 200.765625 143.6875 210.222656 139.117188 L 219.679688 134.546875 L 219.679688 78.4375 L 210.222656 78.4375 C 200.765625 78.4375 181.851562 78.4375 162.941406 78.4375 C 144.027344 78.4375 125.117188 78.4375 106.203125 78.4375 C 87.289062 78.4375 68.378906 78.4375 49.464844 78.4375 C 30.550781 78.4375 11.640625 78.4375 -7.273438 78.4375 C -26.1875 78.4375 -45.097656 78.4375 -54.554688 78.4375 L -64.011719 78.4375 Z M -64.011719 156.925781 " fill-opacity="1" fill-rule="nonzero"/></g><g clip-path="url(#53abfe32da)"><path fill="#cfcfcf" d="M 142.113281 151.539062 L 151.570312 149.710938 C 161.027344 147.847656 179.9375 144.191406 198.851562 146.589844 C 217.765625 149.015625 236.675781 157.527344 255.589844 162.886719 C 274.503906 168.242188 293.414062 170.449219 312.328125 168.875 C 331.238281 167.296875 350.152344 161.9375 369.066406 154.691406 C 387.976562 147.441406 406.890625 138.296875 416.347656 133.726562 L 425.804688 129.15625 L 425.804688 73.050781 L 416.347656 73.050781 C 406.890625 73.050781 387.976562 73.050781 369.066406 73.050781 C 350.152344 73.050781 331.238281 73.050781 312.328125 73.050781 C 293.414062 73.050781 274.503906 73.050781 255.589844 73.050781 C 236.675781 73.050781 217.765625 73.050781 198.851562 73.050781 C 179.9375 73.050781 161.027344 73.050781 151.570312 73.050781 L 142.113281 73.050781 Z M 142.113281 151.539062 " fill-opacity="1" fill-rule="nonzero"/></g><g clip-path="url(#73b07a8628)"><path fill="#cfcfcf" d="M 336.90625 146.976562 L 346.359375 145.148438 C 355.816406 143.285156 374.730469 139.628906 393.640625 142.027344 C 412.554688 144.453125 431.46875 152.964844 450.378906 158.324219 C 469.292969 163.679688 488.207031 165.886719 507.117188 164.3125 C 526.03125 162.734375 544.945312 157.375 563.855469 150.128906 C 582.769531 142.878906 601.679688 133.734375 611.136719 129.164062 L 620.59375 124.59375 L 620.59375 68.488281 L 611.136719 68.488281 C 601.679688 68.488281 582.769531 68.488281 563.855469 68.488281 C 544.945312 68.488281 526.03125 68.488281 507.117188 68.488281 C 488.207031 68.488281 469.292969 68.488281 450.378906 68.488281 C 431.46875 68.488281 412.554688 68.488281 393.640625 68.488281 C 374.730469 68.488281 355.816406 68.488281 346.359375 68.488281 L 336.90625 68.488281 Z M 336.90625 146.976562 " fill-opacity="1" fill-rule="nonzero"/></g><g clip-path="url(#b5b4c185ab)"><path fill="#cfcfcf" d="M 506.25 151.539062 L 515.707031 149.710938 C 525.164062 147.847656 544.074219 144.191406 562.988281 146.589844 C 581.902344 149.015625 600.8125 157.527344 619.726562 162.886719 C 638.636719 168.242188 657.550781 170.449219 676.464844 168.875 C 695.375 167.296875 714.289062 161.9375 733.203125 154.691406 C 752.113281 147.441406 771.027344 138.296875 780.484375 133.726562 L 789.941406 129.15625 L 789.941406 73.050781 L 780.484375 73.050781 C 771.027344 73.050781 752.113281 73.050781 733.203125 73.050781 C 714.289062 73.050781 695.375 73.050781 676.464844 73.050781 C 657.550781 73.050781 638.636719 73.050781 619.726562 73.050781 C 600.8125 73.050781 581.902344 73.050781 562.988281 73.050781 C 544.074219 73.050781 525.164062 73.050781 515.707031 73.050781 L 506.25 73.050781 Z M 506.25 151.539062 " fill-opacity="1" fill-rule="nonzero"/></g></svg>